<mxfile host="app.diagrams.net" modified="2023-09-25T14:06:35.849Z" agent="Mozilla/5.0 (X11; Ubuntu; Linux x86_64; rv:109.0) Gecko/20100101 Firefox/117.0" version="21.6.9" etag="SM1tfpZxdvNqPlga2olT" type="github">
  <diagram name="Page-1" id="vvLKP6nQ0kpnMnOuwGek">
    <mxGraphModel>
      <root>
        <mxCell id="0" />
        <mxCell id="1" parent="0" />
      </root>
    </mxGraphModel>
  </diagram>
</mxfile>
